<svg width="24" height="25" viewBox="0 0 24 25" fill="none" xmlns="http://www.w3.org/2000/svg">
<path d="M20.4701 2.13576H3.53006C3.33964 2.13312 3.15056 2.16801 2.97362 2.23844C2.79669 2.30888 2.63536 2.41348 2.49886 2.54627C2.36235 2.67906 2.25334 2.83744 2.17805 3.01237C2.10276 3.18729 2.06267 3.37534 2.06006 3.56576V20.7058C2.06267 20.8962 2.10276 21.0842 2.17805 21.2591C2.25334 21.4341 2.36235 21.5925 2.49886 21.7252C2.63536 21.858 2.79669 21.9626 2.97362 22.0331C3.15056 22.1035 3.33964 22.1384 3.53006 22.1358H20.4701C20.6605 22.1384 20.8496 22.1035 21.0265 22.0331C21.2034 21.9626 21.3648 21.858 21.5013 21.7252C21.6378 21.5925 21.7468 21.4341 21.8221 21.2591C21.8974 21.0842 21.9375 20.8962 21.9401 20.7058V3.56576C21.9375 3.37534 21.8974 3.18729 21.8221 3.01237C21.7468 2.83744 21.6378 2.67906 21.5013 2.54627C21.3648 2.41348 21.2034 2.30888 21.0265 2.23844C20.8496 2.16801 20.6605 2.13312 20.4701 2.13576ZM8.09006 18.8758H5.09006V9.87576H8.09006V18.8758ZM6.59006 8.61576C6.17632 8.61576 5.77953 8.4514 5.48697 8.15885C5.19442 7.86629 5.03006 7.4695 5.03006 7.05576C5.03006 6.64202 5.19442 6.24523 5.48697 5.95267C5.77953 5.66012 6.17632 5.49576 6.59006 5.49576C6.80975 5.47084 7.03224 5.49261 7.24293 5.55964C7.45363 5.62667 7.6478 5.73745 7.81272 5.88472C7.97763 6.03199 8.10958 6.21244 8.19993 6.41424C8.29028 6.61605 8.33698 6.83466 8.33698 7.05576C8.33698 7.27686 8.29028 7.49547 8.19993 7.69728C8.10958 7.89908 7.97763 8.07953 7.81272 8.2268C7.6478 8.37407 7.45363 8.48485 7.24293 8.55188C7.03224 8.61891 6.80975 8.64067 6.59006 8.61576ZM18.9101 18.8758H15.9101V14.0458C15.9101 12.8358 15.4801 12.0458 14.3901 12.0458C14.0527 12.0482 13.7242 12.154 13.4489 12.3489C13.1735 12.5438 12.9645 12.8184 12.8501 13.1358C12.7718 13.3708 12.7379 13.6183 12.7501 13.8658V18.8658H9.75006C9.75006 18.8658 9.75006 10.6858 9.75006 9.86576H12.7501V11.1358C13.0226 10.6629 13.419 10.2733 13.8965 10.009C14.374 9.74464 14.9146 9.61561 15.4601 9.63576C17.4601 9.63576 18.9101 10.9258 18.9101 13.6958V18.8758Z" fill="#1C2A3A"/>
</svg>
