<svg width="120" height="32" viewBox="0 0 120 32" fill="none" xmlns="http://www.w3.org/2000/svg">
<rect width="8.95187" height="9.14286" fill="#141F38"/>
<rect width="8.95187" height="9.14286" fill="#141F38"/>
<rect x="4.47583" y="27.4287" width="4.47593" height="4.57143" fill="#141F38"/>
<rect x="8.9519" y="9.14258" width="17.9037" height="18.2857" fill="#5AC2D7"/>
<path d="M43.7785 9.17474C45.8005 9.17474 47.3891 9.67257 48.5445 10.6682C49.6999 11.6639 50.2776 13.0006 50.2776 14.6785C50.2776 16.467 49.6999 17.8406 48.5445 18.7994C47.3891 19.7398 45.8095 20.2099 43.8056 20.2099L43.4265 20.4312H39.5812V27.4285H35.8984V9.17474H43.7785ZM43.3453 17.5272C44.3923 17.5272 45.1686 17.3152 45.6741 16.8911C46.1976 16.4486 46.4594 15.7756 46.4594 14.8721C46.4594 13.9686 46.1976 13.3049 45.6741 12.8808C45.1686 12.4383 44.3923 12.217 43.3453 12.217H39.5812V17.5272H43.3453ZM45.5387 18.3293L51.3337 27.4285H47.1364L42.3433 19.4355L45.5387 18.3293Z" fill="#141F38"/>
<path d="M59.9164 27.705C58.4902 27.705 57.2446 27.4192 56.1794 26.8477C55.1324 26.2761 54.32 25.4556 53.7423 24.3862C53.1646 23.3168 52.8757 22.0261 52.8757 20.5142C52.8757 19.0022 53.1646 17.7116 53.7423 16.6422C54.32 15.5728 55.1233 14.7523 56.1524 14.1807C57.1994 13.6091 58.3909 13.3233 59.7268 13.3233C61.0989 13.3233 62.2633 13.6091 63.2201 14.1807C64.1769 14.7338 64.908 15.499 65.4135 16.4762C65.919 17.435 66.1717 18.5321 66.1717 19.7674C66.1717 20.1362 66.1627 20.4865 66.1447 20.8184C66.1266 21.1503 66.0995 21.4453 66.0634 21.7034H55.2587V19.076H64.4387L62.6514 19.7398C62.6514 18.5782 62.3896 17.6839 61.8661 17.057C61.3606 16.4301 60.6385 16.1167 59.6998 16.1167C59.0137 16.1167 58.418 16.2826 57.9125 16.6145C57.4251 16.9464 57.055 17.4442 56.8023 18.108C56.5495 18.7533 56.4231 19.5738 56.4231 20.5695C56.4231 21.5467 56.5585 22.358 56.8293 23.0033C57.1182 23.6302 57.5154 24.1004 58.0208 24.4138C58.5444 24.7273 59.1672 24.884 59.8893 24.884C60.6836 24.884 61.3245 24.7273 61.8119 24.4138C62.2994 24.1004 62.6785 23.6671 62.9493 23.1139L65.9009 24.2755C65.6121 24.9946 65.1698 25.6123 64.574 26.1286C63.9964 26.6448 63.3013 27.0413 62.4889 27.3178C61.6946 27.576 60.8371 27.705 59.9164 27.705Z" fill="#141F38"/>
<path d="M77.7746 13.5999H81.6199L76.4748 27.4285H72.1963L67.0512 13.5999H71.0319L74.3626 24.5245L77.7746 13.5999Z" fill="#141F38"/>
<path d="M89.7989 27.705C88.3728 27.705 87.1271 27.4192 86.062 26.8477C85.0149 26.2761 84.2025 25.4556 83.6248 24.3862C83.0471 23.3168 82.7583 22.0261 82.7583 20.5142C82.7583 19.0022 83.0471 17.7116 83.6248 16.6422C84.2025 15.5728 85.0059 14.7523 86.0349 14.1807C87.082 13.6091 88.2735 13.3233 89.6094 13.3233C90.9814 13.3233 92.1458 13.6091 93.1026 14.1807C94.0594 14.7338 94.7906 15.499 95.2961 16.4762C95.8015 17.435 96.0543 18.5321 96.0543 19.7674C96.0543 20.1362 96.0453 20.4865 96.0272 20.8184C96.0092 21.1503 95.9821 21.4453 95.946 21.7034H85.1413V19.076H94.3212L92.534 19.7398C92.534 18.5782 92.2722 17.6839 91.7487 17.057C91.2432 16.4301 90.5211 16.1167 89.5823 16.1167C88.8963 16.1167 88.3005 16.2826 87.7951 16.6145C87.3076 16.9464 86.9375 17.4442 86.6848 18.108C86.4321 18.7533 86.3057 19.5738 86.3057 20.5695C86.3057 21.5467 86.4411 22.358 86.7119 23.0033C87.0007 23.6302 87.3979 24.1004 87.9034 24.4138C88.4269 24.7273 89.0497 24.884 89.7719 24.884C90.5662 24.884 91.2071 24.7273 91.6945 24.4138C92.1819 24.1004 92.561 23.6671 92.8318 23.1139L95.7835 24.2755C95.4946 24.9946 95.0523 25.6123 94.4566 26.1286C93.8789 26.6448 93.1839 27.0413 92.3715 27.3178C91.5772 27.576 90.7196 27.705 89.7989 27.705Z" fill="#141F38"/>
<path d="M102.962 7.54297V27.4285H99.2524V7.54297H102.962Z" fill="#141F38"/>
<path d="M113.068 13.3233C114.44 13.3233 115.64 13.6091 116.669 14.1807C117.716 14.7523 118.529 15.5728 119.106 16.6422C119.702 17.7116 120 19.0022 120 20.5142C120 22.0077 119.702 23.2983 119.106 24.3862C118.529 25.4556 117.716 26.2761 116.669 26.8477C115.64 27.4192 114.44 27.705 113.068 27.705C111.714 27.705 110.513 27.4192 109.466 26.8477C108.419 26.2761 107.598 25.4556 107.002 24.3862C106.424 23.2983 106.135 22.0077 106.135 20.5142C106.135 19.0022 106.424 17.7116 107.002 16.6422C107.598 15.5728 108.419 14.7523 109.466 14.1807C110.513 13.6091 111.714 13.3233 113.068 13.3233ZM113.068 16.1443C112.382 16.1443 111.795 16.3103 111.308 16.6422C110.838 16.9556 110.477 17.435 110.224 18.0803C109.972 18.7257 109.845 19.5369 109.845 20.5142C109.845 21.4914 109.972 22.3027 110.224 22.948C110.477 23.5933 110.838 24.0819 111.308 24.4138C111.795 24.7273 112.382 24.884 113.068 24.884C113.736 24.884 114.304 24.7273 114.774 24.4138C115.261 24.0819 115.631 23.5933 115.884 22.948C116.137 22.3027 116.263 21.4914 116.263 20.5142C116.263 19.5369 116.137 18.7257 115.884 18.0803C115.631 17.435 115.261 16.9556 114.774 16.6422C114.304 16.3103 113.736 16.1443 113.068 16.1443Z" fill="#141F38"/>
</svg>
