<svg width="45" height="46" viewBox="0 0 45 46" fill="none" xmlns="http://www.w3.org/2000/svg">
<rect y="0.885742" width="10" height="10" fill="#5AC2D7"/>
<rect x="40" y="40.8857" width="5" height="5" fill="#5AC2D7"/>
<rect width="30" height="30" transform="translate(10 10.8857)" fill="#141F38"/>
<path d="M25.6642 15.8857C28.0777 15.8857 29.9491 16.4514 31.2786 17.5827C32.6285 18.6938 33.3035 20.1787 33.3035 22.0373C33.3035 24.0777 32.6387 25.6332 31.3093 26.7039C29.9798 27.7746 28.1083 28.31 25.6949 28.31L25.204 28.5827H21.1849V35.8857H16V15.8857H25.6642ZM24.9279 24.8857C25.9505 24.8857 26.7175 24.6837 27.2289 24.2797C27.7402 23.8756 27.9959 23.2292 27.9959 22.3403C27.9959 21.4716 27.7402 20.8352 27.2289 20.4312C26.7175 20.0272 25.9505 19.8251 24.9279 19.8251H21.1849V24.8857H24.9279ZM28.0265 25.9767L34.5 35.8857H28.6708L23.4859 27.1282L28.0265 25.9767Z" fill="white"/>
</svg>
