<svg width="31" height="34" viewBox="0 0 31 34" fill="none" xmlns="http://www.w3.org/2000/svg">
<path d="M29.5167 24.8502L25.4833 20.8168C25.3284 20.6606 25.1441 20.5366 24.941 20.452C24.7379 20.3674 24.52 20.3238 24.3 20.3238C24.08 20.3238 23.8621 20.3674 23.659 20.452C23.4559 20.5366 23.2716 20.6606 23.1167 20.8168L17.15 26.7835C16.9955 26.9392 16.8733 27.1239 16.7904 27.327C16.7074 27.53 16.6654 27.7475 16.6667 27.9668V32.0002C16.6667 32.4422 16.8423 32.8661 17.1548 33.1787C17.4674 33.4912 17.8913 33.6668 18.3333 33.6668H22.3667C22.586 33.6681 22.8034 33.6261 23.0065 33.5431C23.2096 33.4602 23.3943 33.338 23.55 33.1835L29.5167 27.2168C29.6729 27.0619 29.7969 26.8776 29.8815 26.6745C29.9661 26.4714 30.0097 26.2535 30.0097 26.0335C30.0097 25.8135 29.9661 25.5956 29.8815 25.3925C29.7969 25.1894 29.6729 25.0051 29.5167 24.8502V24.8502ZM21.6667 30.3335H20V28.6668L24.3 24.3668L25.9667 26.0335L21.6667 30.3335ZM11.6667 30.3335H5C4.55797 30.3335 4.13405 30.1579 3.82149 29.8453C3.50893 29.5328 3.33333 29.1089 3.33333 28.6668V5.3335C3.33333 4.89147 3.50893 4.46755 3.82149 4.15499C4.13405 3.84242 4.55797 3.66683 5 3.66683H13.3333V8.66683C13.3333 9.99291 13.8601 11.2647 14.7978 12.2024C15.7355 13.14 17.0073 13.6668 18.3333 13.6668H23.3333V15.3335C23.3333 15.7755 23.5089 16.1994 23.8215 16.512C24.134 16.8246 24.558 17.0002 25 17.0002C25.442 17.0002 25.866 16.8246 26.1785 16.512C26.4911 16.1994 26.6667 15.7755 26.6667 15.3335V12.0002C26.6667 12.0002 26.6667 12.0002 26.6667 11.9002C26.6493 11.7471 26.6158 11.5962 26.5667 11.4502V11.3002C26.4865 11.1288 26.3796 10.9713 26.25 10.8335L16.25 0.833496C16.1122 0.703856 15.9547 0.596964 15.7833 0.516829C15.7336 0.509763 15.6831 0.509763 15.6333 0.516829L15.1 0.333496H5C3.67392 0.333496 2.40215 0.86028 1.46447 1.79796C0.526784 2.73564 0 4.00741 0 5.3335V28.6668C0 29.9929 0.526784 31.2647 1.46447 32.2024C2.40215 33.14 3.67392 33.6668 5 33.6668H11.6667C12.1087 33.6668 12.5326 33.4912 12.8452 33.1787C13.1577 32.8661 13.3333 32.4422 13.3333 32.0002C13.3333 31.5581 13.1577 31.1342 12.8452 30.8217C12.5326 30.5091 12.1087 30.3335 11.6667 30.3335ZM16.6667 6.01683L20.9833 10.3335H18.3333C17.8913 10.3335 17.4674 10.1579 17.1548 9.84534C16.8423 9.53278 16.6667 9.10886 16.6667 8.66683V6.01683ZM8.33333 20.3335H18.3333C18.7754 20.3335 19.1993 20.1579 19.5118 19.8453C19.8244 19.5328 20 19.1089 20 18.6668C20 18.2248 19.8244 17.8009 19.5118 17.4883C19.1993 17.1758 18.7754 17.0002 18.3333 17.0002H8.33333C7.89131 17.0002 7.46738 17.1758 7.15482 17.4883C6.84226 17.8009 6.66667 18.2248 6.66667 18.6668C6.66667 19.1089 6.84226 19.5328 7.15482 19.8453C7.46738 20.1579 7.89131 20.3335 8.33333 20.3335ZM8.33333 13.6668H10C10.442 13.6668 10.866 13.4912 11.1785 13.1787C11.4911 12.8661 11.6667 12.4422 11.6667 12.0002C11.6667 11.5581 11.4911 11.1342 11.1785 10.8217C10.866 10.5091 10.442 10.3335 10 10.3335H8.33333C7.89131 10.3335 7.46738 10.5091 7.15482 10.8217C6.84226 11.1342 6.66667 11.5581 6.66667 12.0002C6.66667 12.4422 6.84226 12.8661 7.15482 13.1787C7.46738 13.4912 7.89131 13.6668 8.33333 13.6668ZM11.6667 23.6668H8.33333C7.89131 23.6668 7.46738 23.8424 7.15482 24.155C6.84226 24.4675 6.66667 24.8915 6.66667 25.3335C6.66667 25.7755 6.84226 26.1994 7.15482 26.512C7.46738 26.8246 7.89131 27.0002 8.33333 27.0002H11.6667C12.1087 27.0002 12.5326 26.8246 12.8452 26.512C13.1577 26.1994 13.3333 25.7755 13.3333 25.3335C13.3333 24.8915 13.1577 24.4675 12.8452 24.155C12.5326 23.8424 12.1087 23.6668 11.6667 23.6668Z" fill="#4A9FB5"/>
</svg>
