<svg width="24" height="25" viewBox="0 0 24 25" fill="none" xmlns="http://www.w3.org/2000/svg">
<path d="M18.7104 7.29995C18.6175 7.20622 18.5069 7.13183 18.385 7.08106C18.2632 7.03029 18.1324 7.00415 18.0004 7.00415C17.8684 7.00415 17.7377 7.03029 17.6159 7.08106C17.494 7.13183 17.3834 7.20622 17.2904 7.29995L9.84044 14.7599L6.71044 11.6199C6.61392 11.5267 6.49998 11.4534 6.37512 11.4042C6.25026 11.355 6.11694 11.3309 5.98276 11.3332C5.84858 11.3355 5.71617 11.3642 5.59309 11.4177C5.47001 11.4712 5.35868 11.5484 5.26544 11.6449C5.1722 11.7415 5.09889 11.8554 5.04968 11.9803C5.00048 12.1051 4.97635 12.2384 4.97867 12.3726C4.98099 12.5068 5.00972 12.6392 5.06321 12.7623C5.1167 12.8854 5.19392 12.9967 5.29044 13.0899L9.13044 16.9299C9.2234 17.0237 9.334 17.0981 9.45586 17.1488C9.57772 17.1996 9.70843 17.2257 9.84044 17.2257C9.97245 17.2257 10.1032 17.1996 10.225 17.1488C10.3469 17.0981 10.4575 17.0237 10.5504 16.9299L18.7104 8.76995C18.8119 8.67631 18.893 8.56265 18.9484 8.43616C19.0038 8.30966 19.0324 8.17305 19.0324 8.03495C19.0324 7.89685 19.0038 7.76024 18.9484 7.63374C18.893 7.50724 18.8119 7.39359 18.7104 7.29995Z" fill="white"/>
</svg>
