<svg width="25" height="24" viewBox="0 0 25 24" fill="none" xmlns="http://www.w3.org/2000/svg">
<path d="M21.0604 1.9999H4.12039C3.92997 1.99725 3.74089 2.03214 3.56396 2.10258C3.38702 2.17302 3.22569 2.27762 3.08919 2.41041C2.95268 2.5432 2.84367 2.70158 2.76838 2.87651C2.69309 3.05143 2.653 3.23947 2.65039 3.4299V20.5699C2.653 20.7603 2.69309 20.9484 2.76838 21.1233C2.84367 21.2982 2.95268 21.4566 3.08919 21.5894C3.22569 21.7222 3.38702 21.8268 3.56396 21.8972C3.74089 21.9676 3.92997 22.0025 4.12039 21.9999H21.0604C21.2508 22.0025 21.4399 21.9676 21.6168 21.8972C21.7938 21.8268 21.9551 21.7222 22.0916 21.5894C22.2281 21.4566 22.3371 21.2982 22.4124 21.1233C22.4877 20.9484 22.5278 20.7603 22.5304 20.5699V3.4299C22.5278 3.23947 22.4877 3.05143 22.4124 2.87651C22.3371 2.70158 22.2281 2.5432 22.0916 2.41041C21.9551 2.27762 21.7938 2.17302 21.6168 2.10258C21.4399 2.03214 21.2508 1.99725 21.0604 1.9999V1.9999ZM8.68039 18.7399H5.68039V9.7399H8.68039V18.7399ZM7.18039 8.4799C6.76665 8.4799 6.36986 8.31554 6.0773 8.02298C5.78475 7.73043 5.62039 7.33363 5.62039 6.9199C5.62039 6.50616 5.78475 6.10937 6.0773 5.81681C6.36986 5.52425 6.76665 5.3599 7.18039 5.3599C7.40009 5.33498 7.62257 5.35675 7.83327 5.42378C8.04396 5.49081 8.23813 5.60159 8.40305 5.74886C8.56797 5.89613 8.69992 6.07657 8.79026 6.27838C8.88061 6.48018 8.92731 6.69879 8.92731 6.9199C8.92731 7.141 8.88061 7.35961 8.79026 7.56141C8.69992 7.76322 8.56797 7.94366 8.40305 8.09093C8.23813 8.23821 8.04396 8.34898 7.83327 8.41601C7.62257 8.48304 7.40009 8.50481 7.18039 8.4799V8.4799ZM19.5004 18.7399H16.5004V13.9099C16.5004 12.6999 16.0704 11.9099 14.9804 11.9099C14.6431 11.9124 14.3146 12.0182 14.0392 12.2131C13.7639 12.408 13.5549 12.6826 13.4404 12.9999C13.3621 13.2349 13.3282 13.4825 13.3404 13.7299V18.7299H10.3404C10.3404 18.7299 10.3404 10.5499 10.3404 9.7299H13.3404V10.9999C13.6129 10.527 14.0093 10.1374 14.4868 9.8731C14.9644 9.60878 15.505 9.47975 16.0504 9.4999C18.0504 9.4999 19.5004 10.7899 19.5004 13.5599V18.7399Z" fill="#273A50"/>
</svg>
