<svg width="8" height="8" viewBox="0 0 8 8" fill="none" xmlns="http://www.w3.org/2000/svg">
<path d="M7.94669 0.413134C7.87908 0.250313 7.74969 0.120925 7.58687 0.0533075C7.50676 0.0191634 7.42073 0.00105282 7.33366 0H2.67021C2.49348 0 2.324 0.0702041 2.19903 0.195168C2.07407 0.320132 2.00386 0.489619 2.00386 0.666345C2.00386 0.84307 2.07407 1.01256 2.19903 1.13752C2.324 1.26249 2.49348 1.33269 2.67021 1.33269H5.72776L0.197104 6.85669C0.134648 6.91863 0.0850761 6.99233 0.0512467 7.07353C0.0174172 7.15473 0 7.24183 0 7.32979C0 7.41776 0.0174172 7.50485 0.0512467 7.58605C0.0850761 7.66725 0.134648 7.74095 0.197104 7.8029C0.259049 7.86535 0.332747 7.91493 0.413948 7.94875C0.495148 7.98258 0.582243 8 0.670208 8C0.758174 8 0.845269 7.98258 0.926469 7.94875C1.00767 7.91493 1.08137 7.86535 1.14331 7.8029L6.66731 2.27224V5.32979C6.66731 5.50652 6.73751 5.67601 6.86248 5.80097C6.98744 5.92593 7.15693 5.99614 7.33366 5.99614C7.51038 5.99614 7.67987 5.92593 7.80483 5.80097C7.9298 5.67601 8 5.50652 8 5.32979V0.666345C7.99895 0.579269 7.98084 0.493243 7.94669 0.413134Z" fill="#0C152C"/>
</svg>
